<mxfile host="" modified="2021-02-25T03:18:03.933Z" agent="5.0 (X11; Linux x86_64) AppleWebKit/537.36 (KHTML, like Gecko) Chrome/84.0.4147.105 Safari/537.36" version="13.7.9" etag="g8JiTu21128N9SzSRFM4" type="embed"><diagram id="dH1CFaNSwzpy8lvotpwO" name="Page-1"><mxGraphModel dx="1018" dy="483" grid="1" gridSize="10" guides="1" tooltips="1" connect="1" arrows="1" fold="1" page="1" pageScale="1" pageWidth="850" pageHeight="1100" math="0" shadow="0"><root><mxCell id="0"/><mxCell id="1" parent="0"/><mxCell id="4" value="10.0.0.0/16&lt;br&gt;" style="rounded=0;whiteSpace=wrap;html=1;align=right;verticalAlign=top;strokeColor=#FF8000;" vertex="1" parent="1"><mxGeometry x="50" y="70" width="530" height="370" as="geometry"/></mxCell><mxCell id="2" value="" style="outlineConnect=0;dashed=0;verticalLabelPosition=bottom;verticalAlign=top;align=center;html=1;shape=mxgraph.aws3.vpc;fillColor=#F58536;gradientColor=none;" vertex="1" parent="1"><mxGeometry x="60" y="110" width="80" height="81" as="geometry"/></mxCell><mxCell id="5" value="(Public) 10.0.1.0/24" style="rounded=0;whiteSpace=wrap;html=1;strokeColor=#006600;align=left;verticalAlign=top;" vertex="1" parent="1"><mxGeometry x="240" y="121" width="230" height="129" as="geometry"/></mxCell><mxCell id="6" value="(Private) 10.0.2.0/24" style="rounded=0;whiteSpace=wrap;html=1;align=left;verticalAlign=top;strokeColor=#999900;" vertex="1" parent="1"><mxGeometry x="240" y="270" width="230" height="129" as="geometry"/></mxCell></root></mxGraphModel></diagram></mxfile>